<?xml version="1.0" encoding="UTF-8" standalone="no"?>
<!-- Created with Inkscape (http://www.inkscape.org/) -->

<svg
   xmlns:dc="http://purl.org/dc/elements/1.1/"
   xmlns:cc="http://creativecommons.org/ns#"
   xmlns:rdf="http://www.w3.org/1999/02/22-rdf-syntax-ns#"
   xmlns:svg="http://www.w3.org/2000/svg"
   xmlns="http://www.w3.org/2000/svg"
   xmlns:sodipodi="http://sodipodi.sourceforge.net/DTD/sodipodi-0.dtd"
   xmlns:inkscape="http://www.inkscape.org/namespaces/inkscape"
   width="200"
   height="200"
   viewBox="0 0 52.916665 52.916668"
   version="1.1"
   id="svg4762"
   inkscape:version="0.92.2 5c3e80d, 2017-08-06"
   sodipodi:docname="discoball.svg">
  <defs
     id="defs4756">
    <marker
       inkscape:stockid="Arrow1Lstart"
       orient="auto"
       refY="0"
       refX="0"
       id="Arrow1Lstart"
       style="overflow:visible"
       inkscape:isstock="true">
      <path
         id="path11297"
         d="M 0,0 5,-5 -12.5,0 5,5 Z"
         style="fill-rule:evenodd;stroke:#000000;stroke-width:1.00000003pt"
         transform="matrix(0.8,0,0,0.8,10,0)"
         inkscape:connector-curvature="0" />
    </marker>
  </defs>
  <sodipodi:namedview
     id="base"
     pagecolor="#000a78"
     bordercolor="#666666"
     borderopacity="1.0"
     inkscape:pageopacity="1"
     inkscape:pageshadow="2"
     inkscape:zoom="2.8284272"
     inkscape:cx="23.2284"
     inkscape:cy="95.699444"
     inkscape:document-units="px"
     inkscape:current-layer="layer1"
     showgrid="false"
     units="px"
     inkscape:snap-global="true"
     inkscape:window-width="1440"
     inkscape:window-height="856"
     inkscape:window-x="12"
     inkscape:window-y="0"
     inkscape:window-maximized="0"
     inkscape:snap-midpoints="false"
     inkscape:snap-nodes="true"
     inkscape:object-nodes="true" />
  <metadata
     id="metadata4759">
    <rdf:RDF>
      <cc:Work
         rdf:about="">
        <dc:format>image/svg+xml</dc:format>
        <dc:type
           rdf:resource="http://purl.org/dc/dcmitype/StillImage" />
        <dc:title></dc:title>
      </cc:Work>
    </rdf:RDF>
  </metadata>
  <g
     inkscape:label="Layer 1"
     inkscape:groupmode="layer"
     id="layer1"
     transform="translate(0,-244.08332)">
    <path
       style="opacity:1;fill:none;fill-opacity:1;fill-rule:nonzero;stroke:#ffffff;stroke-width:1.00267673;stroke-linecap:round;stroke-linejoin:miter;stroke-miterlimit:4;stroke-dasharray:none;stroke-dashoffset:0;stroke-opacity:1;paint-order:fill markers stroke"
       d="M 47.255651,275.42288 A 20.797317,20.797317 0 0 1 26.458334,296.2202 20.797317,20.797317 0 0 1 5.6610156,275.42288 20.797317,20.797317 0 0 1 26.458334,254.62557 20.797317,20.797317 0 0 1 47.255651,275.42288 Z"
       id="path18339"
       inkscape:connector-curvature="0" />
    <path
       style="fill:#ffffff;fill-rule:evenodd;stroke:#ffffff;stroke-width:0.33422557;stroke-linecap:butt;stroke-linejoin:miter;stroke-miterlimit:4;stroke-dasharray:none;stroke-opacity:0.64646463"
       d="M 47.255649,275.42288 H 5.4090796"
       id="path18342"
       inkscape:connector-curvature="0" />
    <path
       inkscape:connector-curvature="0"
       id="path18344"
       d="m 47.255649,273.65385 c 0,0 -1.51295,-1.89066 -20.923286,-1.89066 -19.4103337,0 -20.9232834,1.89066 -20.9232834,1.89066"
       style="fill:none;fill-rule:evenodd;stroke:#ffffff;stroke-width:0.33422557;stroke-linecap:butt;stroke-linejoin:miter;stroke-miterlimit:4;stroke-dasharray:none;stroke-opacity:0.64646463"
       sodipodi:nodetypes="czc" />
    <path
       style="fill:none;fill-rule:evenodd;stroke:#ffffff;stroke-width:0.33422557;stroke-linecap:butt;stroke-linejoin:miter;stroke-miterlimit:4;stroke-dasharray:none;stroke-opacity:0.64646463"
       d="m 46.337687,269.64314 c 0,0 -5.089011,-1.77251 -20.005324,-1.77251 -14.916312,0 -20.0053226,1.77251 -20.0053226,1.77251"
       id="path18346"
       inkscape:connector-curvature="0"
       sodipodi:nodetypes="czc" />
    <path
       inkscape:connector-curvature="0"
       id="path18348"
       d="m 45.159967,266.30085 c 0,0 -5.517962,-2.24518 -18.827602,-2.24518 -13.30964,0 -18.8276011,2.24518 -18.8276011,2.24518"
       style="fill:none;fill-rule:evenodd;stroke:#ffffff;stroke-width:0.33422557;stroke-linecap:butt;stroke-linejoin:miter;stroke-miterlimit:4;stroke-dasharray:none;stroke-opacity:0.64646463"
       sodipodi:nodetypes="czc" />
    <path
       style="fill:none;fill-rule:evenodd;stroke:#ffffff;stroke-width:0.33422557;stroke-linecap:butt;stroke-linejoin:miter;stroke-miterlimit:4;stroke-dasharray:none;stroke-opacity:0.64646463"
       d="m 43.42905,262.95857 c 0,0 -5.816565,-2.24515 -17.096685,-2.24515 -11.280119,0 -17.0966841,2.24515 -17.0966841,2.24515"
       id="path18350"
       inkscape:connector-curvature="0"
       sodipodi:nodetypes="czc" />
    <path
       inkscape:connector-curvature="0"
       id="path18352"
       d="m 38.629489,258.94785 c 0,0 -5.453091,-1.418 -12.297126,-1.418 -6.844034,0 -12.297123,1.418 -12.297123,1.418"
       style="fill:none;fill-rule:evenodd;stroke:#ffffff;stroke-width:0.33422557;stroke-linecap:butt;stroke-linejoin:miter;stroke-miterlimit:4;stroke-dasharray:none;stroke-opacity:0.64646463"
       sodipodi:nodetypes="czc" />
    <path
       style="fill:none;fill-rule:evenodd;stroke:#ffffff;stroke-width:0.33422557;stroke-linecap:butt;stroke-linejoin:miter;stroke-miterlimit:4;stroke-dasharray:none;stroke-opacity:0.64646463"
       d="m 34.020992,256.27403 c 0,0 -2.759699,-0.59085 -7.688629,-0.59085 -4.928929,0 -7.688627,0.59085 -7.688627,0.59085"
       id="path18354"
       inkscape:connector-curvature="0"
       sodipodi:nodetypes="czc" />
    <g
       id="g18374"
       transform="matrix(0,1.2632147,-1.2632147,0,376.55716,250.36252)"
       style="stroke:#ffffff;stroke-opacity:0.64646463">
      <path
         inkscape:connector-curvature="0"
         id="path18356"
         d="m 36.307551,275.75582 c 0,0 -1.197698,-1.49671 -16.563522,-1.49671 -15.3658237,0 -16.5635217,1.49671 -16.5635217,1.49671"
         style="fill:none;fill-rule:evenodd;stroke:#ffffff;stroke-width:0.26458332;stroke-linecap:butt;stroke-linejoin:miter;stroke-miterlimit:4;stroke-dasharray:none;stroke-opacity:0.64646463"
         sodipodi:nodetypes="czc" />
      <path
         style="fill:none;fill-rule:evenodd;stroke:#ffffff;stroke-width:0.26458332;stroke-linecap:butt;stroke-linejoin:miter;stroke-miterlimit:4;stroke-dasharray:none;stroke-opacity:0.64646463"
         d="m 35.580864,272.58081 c 0,0 -4.028619,-1.40316 -15.836835,-1.40316 -11.8082166,0 -15.8368354,1.40316 -15.8368354,1.40316"
         id="path18358"
         inkscape:connector-curvature="0"
         sodipodi:nodetypes="czc" />
      <path
         inkscape:connector-curvature="0"
         id="path18360"
         d="m 34.648544,269.93496 c 0,0 -4.36819,-1.77735 -14.904514,-1.77735 -10.5363249,0 -14.9045139,1.77735 -14.9045139,1.77735"
         style="fill:none;fill-rule:evenodd;stroke:#ffffff;stroke-width:0.26458332;stroke-linecap:butt;stroke-linejoin:miter;stroke-miterlimit:4;stroke-dasharray:none;stroke-opacity:0.64646463"
         sodipodi:nodetypes="czc" />
      <path
         style="fill:none;fill-rule:evenodd;stroke:#ffffff;stroke-width:0.26458332;stroke-linecap:butt;stroke-linejoin:miter;stroke-miterlimit:4;stroke-dasharray:none;stroke-opacity:0.64646463"
         d="m 33.278296,267.28911 c 0,0 -4.604573,-1.77734 -13.534266,-1.77734 -8.929693,0 -13.5342662,1.77734 -13.5342662,1.77734"
         id="path18362"
         inkscape:connector-curvature="0"
         sodipodi:nodetypes="czc" />
      <path
         inkscape:connector-curvature="0"
         id="path18364"
         d="m 29.478815,264.11409 c 0,0 -4.316836,-1.12253 -9.734786,-1.12253 -5.41795,0 -9.734785,1.12253 -9.734785,1.12253"
         style="fill:none;fill-rule:evenodd;stroke:#ffffff;stroke-width:0.26458332;stroke-linecap:butt;stroke-linejoin:miter;stroke-miterlimit:4;stroke-dasharray:none;stroke-opacity:0.64646463"
         sodipodi:nodetypes="czc" />
      <path
         style="fill:none;fill-rule:evenodd;stroke:#ffffff;stroke-width:0.26458332;stroke-linecap:butt;stroke-linejoin:miter;stroke-miterlimit:4;stroke-dasharray:none;stroke-opacity:0.64646463"
         d="m 25.830585,261.99741 c 0,0 -2.184662,-0.46773 -6.086556,-0.46773 -3.901894,0 -6.086557,0.46773 -6.086557,0.46773"
         id="path18366"
         inkscape:connector-curvature="0"
         sodipodi:nodetypes="czc" />
    </g>
    <path
       inkscape:connector-curvature="0"
       id="path18376"
       d="M 26.332363,296.34618 V 254.49961"
       style="fill:#ffffff;fill-rule:evenodd;stroke:#ffffff;stroke-width:0.33422557;stroke-linecap:butt;stroke-linejoin:miter;stroke-miterlimit:4;stroke-dasharray:none;stroke-opacity:0.64705882" />
    <g
       transform="matrix(-1.2632147,0,0,-1.2632147,51.155148,625.29193)"
       id="g18390"
       style="stroke:#ffffff;stroke-opacity:0.64646463">
      <path
         sodipodi:nodetypes="czc"
         style="fill:none;fill-rule:evenodd;stroke:#ffffff;stroke-width:0.26458332;stroke-linecap:butt;stroke-linejoin:miter;stroke-miterlimit:4;stroke-dasharray:none;stroke-opacity:0.64646463"
         d="m 36.307551,275.75582 c 0,0 -1.197698,-1.49671 -16.563522,-1.49671 -15.3658237,0 -16.5635217,1.49671 -16.5635217,1.49671"
         id="path18378"
         inkscape:connector-curvature="0" />
      <path
         sodipodi:nodetypes="czc"
         inkscape:connector-curvature="0"
         id="path18380"
         d="m 35.580864,272.58081 c 0,0 -4.028619,-1.40316 -15.836835,-1.40316 -11.8082166,0 -15.8368354,1.40316 -15.8368354,1.40316"
         style="fill:none;fill-rule:evenodd;stroke:#ffffff;stroke-width:0.26458332;stroke-linecap:butt;stroke-linejoin:miter;stroke-miterlimit:4;stroke-dasharray:none;stroke-opacity:0.64646463" />
      <path
         sodipodi:nodetypes="czc"
         style="fill:none;fill-rule:evenodd;stroke:#ffffff;stroke-width:0.26458332;stroke-linecap:butt;stroke-linejoin:miter;stroke-miterlimit:4;stroke-dasharray:none;stroke-opacity:0.64646463"
         d="m 34.648544,269.93496 c 0,0 -4.36819,-1.77735 -14.904514,-1.77735 -10.5363249,0 -14.9045139,1.77735 -14.9045139,1.77735"
         id="path18382"
         inkscape:connector-curvature="0" />
      <path
         sodipodi:nodetypes="czc"
         inkscape:connector-curvature="0"
         id="path18384"
         d="m 33.278296,267.28911 c 0,0 -4.604573,-1.77734 -13.534266,-1.77734 -8.929693,0 -13.5342662,1.77734 -13.5342662,1.77734"
         style="fill:none;fill-rule:evenodd;stroke:#ffffff;stroke-width:0.26458332;stroke-linecap:butt;stroke-linejoin:miter;stroke-miterlimit:4;stroke-dasharray:none;stroke-opacity:0.64646463" />
      <path
         sodipodi:nodetypes="czc"
         style="fill:none;fill-rule:evenodd;stroke:#ffffff;stroke-width:0.26458332;stroke-linecap:butt;stroke-linejoin:miter;stroke-miterlimit:4;stroke-dasharray:none;stroke-opacity:0.64646463"
         d="m 29.478815,264.11409 c 0,0 -4.316836,-1.12253 -9.734786,-1.12253 -5.41795,0 -9.734785,1.12253 -9.734785,1.12253"
         id="path18386"
         inkscape:connector-curvature="0" />
      <path
         sodipodi:nodetypes="czc"
         inkscape:connector-curvature="0"
         id="path18388"
         d="m 25.830585,261.99741 c 0,0 -2.184662,-0.46773 -6.086556,-0.46773 -3.901894,0 -6.086557,0.46773 -6.086557,0.46773"
         style="fill:none;fill-rule:evenodd;stroke:#ffffff;stroke-width:0.26458332;stroke-linecap:butt;stroke-linejoin:miter;stroke-miterlimit:4;stroke-dasharray:none;stroke-opacity:0.64646463" />
    </g>
    <g
       id="g18404"
       transform="matrix(0,-1.2632147,1.2632147,0,-323.53792,300.24443)"
       style="stroke:#ffffff;stroke-opacity:0.64646463">
      <path
         inkscape:connector-curvature="0"
         id="path18392"
         d="m 36.307551,275.75582 c 0,0 -1.197698,-1.49671 -16.563522,-1.49671 -15.3658237,0 -16.5635217,1.49671 -16.5635217,1.49671"
         style="fill:none;fill-rule:evenodd;stroke:#ffffff;stroke-width:0.26458332;stroke-linecap:butt;stroke-linejoin:miter;stroke-miterlimit:4;stroke-dasharray:none;stroke-opacity:0.64646463"
         sodipodi:nodetypes="czc" />
      <path
         style="fill:none;fill-rule:evenodd;stroke:#ffffff;stroke-width:0.26458332;stroke-linecap:butt;stroke-linejoin:miter;stroke-miterlimit:4;stroke-dasharray:none;stroke-opacity:0.64646463"
         d="m 35.580864,272.58081 c 0,0 -4.028619,-1.40316 -15.836835,-1.40316 -11.8082166,0 -15.8368354,1.40316 -15.8368354,1.40316"
         id="path18394"
         inkscape:connector-curvature="0"
         sodipodi:nodetypes="czc" />
      <path
         inkscape:connector-curvature="0"
         id="path18396"
         d="m 34.648544,269.93496 c 0,0 -4.36819,-1.77735 -14.904514,-1.77735 -10.5363249,0 -14.9045139,1.77735 -14.9045139,1.77735"
         style="fill:none;fill-rule:evenodd;stroke:#ffffff;stroke-width:0.26458332;stroke-linecap:butt;stroke-linejoin:miter;stroke-miterlimit:4;stroke-dasharray:none;stroke-opacity:0.64646463"
         sodipodi:nodetypes="czc" />
      <path
         style="fill:none;fill-rule:evenodd;stroke:#ffffff;stroke-width:0.26458332;stroke-linecap:butt;stroke-linejoin:miter;stroke-miterlimit:4;stroke-dasharray:none;stroke-opacity:0.64646463"
         d="m 33.278296,267.28911 c 0,0 -4.604573,-1.77734 -13.534266,-1.77734 -8.929693,0 -13.5342662,1.77734 -13.5342662,1.77734"
         id="path18398"
         inkscape:connector-curvature="0"
         sodipodi:nodetypes="czc" />
      <path
         inkscape:connector-curvature="0"
         id="path18400"
         d="m 29.478815,264.11409 c 0,0 -4.316836,-1.12253 -9.734786,-1.12253 -5.41795,0 -9.734785,1.12253 -9.734785,1.12253"
         style="fill:none;fill-rule:evenodd;stroke:#ffffff;stroke-width:0.26458332;stroke-linecap:butt;stroke-linejoin:miter;stroke-miterlimit:4;stroke-dasharray:none;stroke-opacity:0.64646463"
         sodipodi:nodetypes="czc" />
      <path
         style="fill:none;fill-rule:evenodd;stroke:#ffffff;stroke-width:0.26458332;stroke-linecap:butt;stroke-linejoin:miter;stroke-miterlimit:4;stroke-dasharray:none;stroke-opacity:0.64646463"
         d="m 25.830585,261.99741 c 0,0 -2.184662,-0.46773 -6.086556,-0.46773 -3.901894,0 -6.086557,0.46773 -6.086557,0.46773"
         id="path18402"
         inkscape:connector-curvature="0"
         sodipodi:nodetypes="czc" />
    </g>
    <path
       style="fill:#ffffff;fill-rule:evenodd;stroke:#ffffff;stroke-width:2.91450644;stroke-linecap:butt;stroke-linejoin:miter;stroke-miterlimit:4;stroke-dasharray:none;stroke-opacity:1"
       d="M 26.332363,254.49961 V 244.08332"
       id="path18406"
       inkscape:connector-curvature="0"
       sodipodi:nodetypes="cc" />
  </g>
</svg>
