<?xml version="1.0" encoding="UTF-8" standalone="no"?>
<!-- Created with Inkscape (http://www.inkscape.org/) -->

<svg
   xmlns:dc="http://purl.org/dc/elements/1.1/"
   xmlns:cc="http://creativecommons.org/ns#"
   xmlns:rdf="http://www.w3.org/1999/02/22-rdf-syntax-ns#"
   xmlns:svg="http://www.w3.org/2000/svg"
   xmlns="http://www.w3.org/2000/svg"
   xmlns:sodipodi="http://sodipodi.sourceforge.net/DTD/sodipodi-0.dtd"
   xmlns:inkscape="http://www.inkscape.org/namespaces/inkscape"
   width="150"
   height="150"
   viewBox="0 0 39.687499 39.687501"
   version="1.1"
   id="svg4762"
   inkscape:version="0.92.2 5c3e80d, 2017-08-06"
   sodipodi:docname="kuerig.svg">
  <defs
     id="defs4756">
    <marker
       inkscape:stockid="Arrow1Lstart"
       orient="auto"
       refY="0.0"
       refX="0.0"
       id="Arrow1Lstart"
       style="overflow:visible"
       inkscape:isstock="true">
      <path
         id="path11297"
         d="M 0.0,0.0 L 5.0,-5.0 L -12.5,0.0 L 5.0,5.0 L 0.0,0.0 z "
         style="fill-rule:evenodd;stroke:#000000;stroke-width:1.0pt"
         transform="scale(0.8) translate(12.5,0)" />
    </marker>
  </defs>
  <sodipodi:namedview
     id="base"
     pagecolor="#000a78"
     bordercolor="#666666"
     borderopacity="1.0"
     inkscape:pageopacity="1"
     inkscape:pageshadow="2"
     inkscape:zoom="1.4142136"
     inkscape:cx="42.913541"
     inkscape:cy="169.4368"
     inkscape:document-units="px"
     inkscape:current-layer="layer1"
     showgrid="false"
     units="px"
     inkscape:snap-global="false"
     inkscape:window-width="1440"
     inkscape:window-height="856"
     inkscape:window-x="-5"
     inkscape:window-y="0"
     inkscape:window-maximized="0"
     inkscape:snap-midpoints="true"
     inkscape:snap-nodes="true"
     inkscape:object-nodes="false" />
  <metadata
     id="metadata4759">
    <rdf:RDF>
      <cc:Work
         rdf:about="">
        <dc:format>image/svg+xml</dc:format>
        <dc:type
           rdf:resource="http://purl.org/dc/dcmitype/StillImage" />
        <dc:title></dc:title>
      </cc:Work>
    </rdf:RDF>
  </metadata>
  <g
     inkscape:label="Layer 1"
     inkscape:groupmode="layer"
     id="layer1"
     transform="translate(0,-257.31249)">
    <path
       style="opacity:1;fill:#ffffff;fill-opacity:0.18686868;fill-rule:nonzero;stroke:#ffffff;stroke-width:3;stroke-linecap:round;stroke-linejoin:miter;stroke-miterlimit:4;stroke-dasharray:none;stroke-dashoffset:0;stroke-opacity:1;paint-order:fill markers stroke"
       d="m 75,14 c -6.210609,0 -11.870371,0.413473 -17,1.111328 v 42.792968 c 0.39428,0.382601 0.766863,0.893673 2.974609,2.021484 2.882529,1.472504 7.418478,3.019531 14.025391,3.019531 6.606917,0 11.142862,-1.547027 14.025391,-3.019531 C 91.233137,58.797969 91.60572,58.286897 92,57.904296 V 15.111328 C 86.870371,14.413473 81.210609,14 75,14 Z M 51.001953,16.302734 C 28.178622,20.944727 18,31 18,31 V 136 H 46.961418 V 93.715728 H 70.194866 V 77.805825 H 80.667274 V 93.715728 H 103.79962 V 136 H 132 V 31 c 0,0 -10.17862,-10.055273 -33.001953,-14.697266 v 44.679687 l -0.908203,1.003906 c 0,0 -2.088469,2.235598 -5.875,4.169922 C 88.428309,68.090536 82.716843,69.951171 75,69.951171 c -7.716843,0 -13.428309,-1.860635 -17.214844,-3.794922 -3.786531,-1.934324 -5.875,-4.169922 -5.875,-4.169922 l -0.908203,-1.003906 z"
       transform="matrix(0.26458333,0,0,0.26458333,0,257.31249)"
       id="rect11295"
       inkscape:connector-curvature="0"
       sodipodi:nodetypes="scccscccscccccccccccccccccscccc" />
    <path
       style="opacity:1;fill:#ffffff;fill-opacity:1;fill-rule:nonzero;stroke:none;stroke-width:1.85208333;stroke-linecap:round;stroke-linejoin:miter;stroke-miterlimit:4;stroke-dasharray:none;stroke-dashoffset:0;stroke-opacity:0.97979796;paint-order:fill markers stroke"
       d="m 14.250282,284.00006 h 11.186936 l -2.116667,7.70824 h -6.953602 z"
       id="rect11575"
       inkscape:connector-curvature="0"
       sodipodi:nodetypes="ccccc" />
    <ellipse
       style="opacity:1;fill:#ffffff;fill-opacity:0.98989898;fill-rule:nonzero;stroke:none;stroke-width:1.85208333;stroke-linecap:round;stroke-linejoin:miter;stroke-miterlimit:4;stroke-dasharray:none;stroke-dashoffset:0;stroke-opacity:0.97979796;paint-order:fill markers stroke"
       id="path11578"
       cx="19.84375"
       cy="291.70831"
       rx="5.7347436"
       ry="1.045011" />
    <ellipse
       style="opacity:1;fill:none;fill-opacity:0.96464646;fill-rule:nonzero;stroke:#ffffff;stroke-width:0.79374999;stroke-linecap:round;stroke-linejoin:miter;stroke-miterlimit:4;stroke-dasharray:none;stroke-dashoffset:0;stroke-opacity:1;paint-order:fill markers stroke"
       id="path11580"
       cx="25.163427"
       cy="287.83264"
       rx="1.403165"
       ry="1.4967093" />
  </g>
</svg>
